<svg width="267" height="180" viewBox="0 0 267 180" fill="none" xmlns="http://www.w3.org/2000/svg">
<path d="M24.5067 74.5004L20.3559 28.2694L64.657 17.1598L69.5051 62.6839L24.5067 74.5004Z" fill="#C8C8C8"/>
<ellipse cx="55.3941" cy="117.664" rx="15.5556" ry="14.1072" transform="rotate(40 55.3941 117.664)" fill="#C8C8C8"/>
<ellipse cx="42.4697" cy="133.067" rx="15.5556" ry="14.1072" transform="rotate(40 42.4697 133.067)" fill="#C8C8C8"/>
<ellipse cx="29.9715" cy="125.861" rx="15.1587" ry="15.1611" transform="rotate(40 29.9715 125.861)" fill="#C8C8C8"/>
<ellipse cx="52.7096" cy="144.94" rx="15.1587" ry="15.1611" transform="rotate(40 52.7096 144.94)" fill="#C8C8C8"/>
<path d="M29.2848 143.594L31.0828 141.081L32.9328 140.728L34.9392 140.189L37.1366 139.176L39.308 137.823L38.1962 140.382L37.5621 143.237L37.6662 146.817L36.6153 147.946L35.9899 148.691L35.5469 149.59L34.8086 151.087L34.0008 153.161L33.3754 156.129L33.0192 159.64L33.0626 161.687L32.7499 162.06L32.1332 162.177L17.1163 149.577L17.125 148.949L17.898 148.645L20.5298 148.102L23.3178 147.372L26.7052 145.557L29.2848 143.594Z" fill="#C8C8C8"/>
<path d="M114.315 154.749L114.366 159.859L118.193 159.435L121.358 158.896L126.3 158.306L131.498 157.93L136.803 157.425L141.402 156.987L146.389 156.215L153.251 154.372L149.841 154.815L145.304 154.534L141.471 152.638L138.224 149.914L136.444 146.217L135.537 143.033L135.443 138.878L137.049 132.955L133.807 134.751L130.798 135.751L126.69 136.381L123.377 135.804L119.699 134.37L116.134 131.378L113.781 127.201L113.563 117.764L112.954 120.558L112.501 123.814L112.314 128.173L112.627 132.842L112.924 138.048L113.291 142.653L113.887 147.89L114.315 154.749Z" fill="#C8C8C8"/>
<ellipse cx="129.869" cy="118.888" rx="15.5402" ry="18.6498" transform="rotate(40 129.869 118.888)" fill="#C8C8C8"/>
<ellipse cx="152.15" cy="137.584" rx="15.374" ry="18.6498" transform="rotate(40 152.15 137.584)" fill="#C8C8C8"/>
<path d="M154.37 24.8427L153.769 19.9059L150.068 20.5544L147.029 21.2732L142.254 22.1515L137.208 22.8392L132.069 23.6586L127.615 24.3687L122.816 25.4265L116.298 27.6362L119.588 26.9946L124.059 26.9839L128.016 28.5767L131.488 31.0076L133.629 34.4701L134.861 37.4923L135.4 41.5026L134.466 47.328L137.447 45.3898L140.284 44.2351L144.237 43.3707L147.542 43.7215L151.298 44.8783L155.11 47.5476L157.863 51.439L159.094 60.5474L159.389 57.8085L159.481 54.6337L159.194 50.4075L158.384 45.9136L157.533 40.8996L156.677 36.4715L155.529 31.4463L154.37 24.8427Z" fill="#C8C8C8"/>
<ellipse cx="143.012" cy="60.4783" rx="15.5402" ry="17.7724" transform="rotate(-145 143.012 60.4783)" fill="#C8C8C8"/>
<ellipse cx="119.186" cy="43.7953" rx="15.374" ry="17.7724" transform="rotate(-145 119.186 43.7953)" fill="#C8C8C8"/>
<path d="M118.98 61.9109L120.528 59.2646L122.38 58.7939L124.37 58.1255L126.5 56.9665L128.564 55.4669L127.723 58.1175L127.404 61.0358L127.924 64.6396L126.98 65.8436L126.426 66.634L126.077 67.5675L125.495 69.1234L124.908 71.2651L124.611 74.2969L124.653 77.8601L124.934 79.922L124.657 80.3173L124.04 80.4742L107.226 68.7008L107.162 68.0672L107.917 67.7126L110.546 67.0009L113.313 66.0915L116.568 64.051L118.98 61.9109Z" fill="#C8C8C8"/>
<rect x="220.952" y="89.6127" width="60" height="60" rx="5" transform="rotate(40 220.952 89.6127)" fill="#C8C8C8"/>
<circle cx="224.773" cy="133.286" r="6" transform="rotate(40 224.773 133.286)" fill="#888888"/>
<circle cx="250.255" cy="132.477" r="6" transform="rotate(40 250.255 132.477)" fill="#888888"/>
<circle cx="220.38" cy="107.408" r="6" transform="rotate(40 220.38 107.408)" fill="#888888"/>
<circle cx="196.473" cy="134.343" r="6" transform="rotate(40 196.473 134.343)" fill="#888888"/>
<circle cx="227.115" cy="160.054" r="6" transform="rotate(40 227.115 160.054)" fill="#888888"/>
<path d="M222.65 18.3778C239.494 18.3778 253.15 32.0331 253.15 48.8778C253.15 65.7225 239.494 79.3778 222.65 79.3778C205.805 79.3778 192.15 65.7225 192.15 48.8778C192.15 32.0331 205.805 18.3778 222.65 18.3778Z" fill="#888888" stroke="#C8C8C8" stroke-width="3"/>
<circle cx="222.65" cy="48.8778" r="28" fill="#C8C8C8"/>
<path d="M244.046 67.7506L200.452 30.912L201.318 29.4509L244.956 66.0333L244.046 67.7506Z" fill="#888888"/>
<path d="M250.762 54.5139L194.589 44.4076L194.609 42.7093L250.691 52.5718L250.762 54.5139Z" fill="#888888"/>
<path d="M249.959 39.6929L196.259 59.0269L195.427 57.5464L248.927 38.0464L249.959 39.6929Z" fill="#888888"/>
<path d="M241.854 27.2587L205.015 70.8524L203.554 69.9864L240.137 26.3489L241.854 27.2587Z" fill="#888888"/>
<path d="M228.617 20.5431L218.511 76.7156L216.813 76.6962L226.675 20.6138L228.617 20.5431Z" fill="#888888"/>
<path d="M213.796 21.3455L233.13 75.0455L231.65 75.8778L212.15 22.3778L213.796 21.3455Z" fill="#888888"/>
<circle cx="222.65" cy="48.8778" r="8" fill="#888888"/>
<circle cx="222.65" cy="48.8778" r="6" fill="#C8C8C8"/>
</svg>
